<svg width="962" height="456" viewBox="0 0 962 456" fill="none" xmlns="http://www.w3.org/2000/svg">
<rect width="962" height="456" fill="#181825"/>
<g filter="url(#filter0_d_1556_739)">
<path d="M297.015 377C297.015 375.895 296.116 375 295.007 375C293.899 375 293 375.895 293 377C293 378.105 293.899 379 295.007 379C296.116 379 297.015 378.105 297.015 377Z" fill="url(#paint0_linear_1556_739)"/>
</g>
<g filter="url(#filter1_d_1556_739)">
<path d="M725.015 316C725.015 314.895 724.116 314 723.007 314C721.899 314 721 314.895 721 316C721 317.105 721.899 318 723.007 318C724.116 318 725.015 317.105 725.015 316Z" fill="url(#paint1_linear_1556_739)"/>
</g>
<path d="M682.678 136.323C682.678 133.935 680.735 132 678.339 132C675.943 132 674 133.935 674 136.323C674 138.71 675.943 140.645 678.339 140.645C680.735 140.645 682.678 138.71 682.678 136.323Z" fill="url(#paint2_linear_1556_739)"/>
<path d="M379.678 281.323C379.678 278.935 377.735 277 375.339 277C372.943 277 371 278.935 371 281.323C371 283.71 372.943 285.645 375.339 285.645C377.735 285.645 379.678 283.71 379.678 281.323Z" fill="url(#paint3_linear_1556_739)"/>
<g filter="url(#filter2_d_1556_739)">
<path d="M241.015 90C241.015 88.8954 240.116 88 239.007 88C237.899 88 237 88.8954 237 90C237 91.1046 237.899 92 239.007 92C240.116 92 241.015 91.1046 241.015 90Z" fill="url(#paint4_linear_1556_739)"/>
</g>
<g filter="url(#filter3_d_1556_739)">
<path d="M839.015 61C839.015 59.8954 838.116 59 837.007 59C835.899 59 835 59.8954 835 61C835 62.1046 835.899 63 837.007 63C838.116 63 839.015 62.1046 839.015 61Z" fill="url(#paint5_linear_1556_739)"/>
</g>
<g filter="url(#filter4_d_1556_739)">
<path d="M36.015 210C36.015 208.895 35.1162 208 34.0075 208C32.8988 208 32 208.895 32 210C32 211.105 32.8988 212 34.0075 212C35.1162 212 36.015 211.105 36.015 210Z" fill="url(#paint6_linear_1556_739)"/>
</g>
<g filter="url(#filter5_d_1556_739)">
<path d="M575.015 340C575.015 338.895 574.116 338 573.007 338C571.899 338 571 338.895 571 340C571 341.105 571.899 342 573.007 342C574.116 342 575.015 341.105 575.015 340Z" fill="url(#paint7_linear_1556_739)"/>
</g>
<g filter="url(#filter6_d_1556_739)">
<path d="M586.015 45C586.015 43.8954 585.116 43 584.007 43C582.899 43 582 43.8954 582 45C582 46.1046 582.899 47 584.007 47C585.116 47 586.015 46.1046 586.015 45Z" fill="url(#paint8_linear_1556_739)"/>
</g>
<g opacity="0.7">
<path opacity="0.9" d="M856 214.956V215.899H874.855V214.956H856Z" fill="url(#paint9_linear_1556_739)"/>
<path opacity="0.9" d="M865.9 224.855H864.957V206H865.9V224.855Z" fill="url(#paint10_linear_1556_739)"/>
<path d="M866.094 216.095C866.462 215.727 866.462 215.13 866.094 214.762C865.725 214.393 865.129 214.393 864.76 214.762C864.392 215.13 864.392 215.727 864.76 216.095C865.129 216.463 865.725 216.463 866.094 216.095Z" fill="white"/>
</g>
<g opacity="0.7">
<path opacity="0.9" d="M75 340.956V341.899H93.8552V340.956H75Z" fill="url(#paint11_linear_1556_739)"/>
<path opacity="0.9" d="M84.8997 350.855H83.957V332H84.8997V350.855Z" fill="url(#paint12_linear_1556_739)"/>
<path d="M85.0936 342.095C85.4618 341.727 85.4618 341.13 85.0936 340.762C84.7255 340.393 84.1285 340.393 83.7604 340.762C83.3922 341.13 83.3922 341.727 83.7604 342.095C84.1285 342.463 84.7255 342.463 85.0936 342.095Z" fill="white"/>
</g>
<g opacity="0.7">
<path opacity="0.9" d="M742 410.956V411.899H760.855V410.956H742Z" fill="url(#paint13_linear_1556_739)"/>
<path opacity="0.9" d="M751.9 420.855H750.957V402H751.9V420.855Z" fill="url(#paint14_linear_1556_739)"/>
<path d="M752.094 412.095C752.462 411.727 752.462 411.13 752.094 410.762C751.725 410.393 751.129 410.393 750.76 410.762C750.392 411.13 750.392 411.727 750.76 412.095C751.129 412.463 751.725 412.463 752.094 412.095Z" fill="white"/>
</g>
<g opacity="0.7">
<path opacity="0.9" d="M126 36.9564V37.8992H144.855V36.9564H126Z" fill="url(#paint15_linear_1556_739)"/>
<path opacity="0.9" d="M135.9 46.8552H134.957V28H135.9V46.8552Z" fill="url(#paint16_linear_1556_739)"/>
<path d="M136.094 38.0949C136.462 37.7267 136.462 37.1298 136.094 36.7616C135.725 36.3934 135.129 36.3934 134.76 36.7616C134.392 37.1298 134.392 37.7267 134.76 38.0948C135.129 38.463 135.725 38.463 136.094 38.0949Z" fill="white"/>
</g>
<g opacity="0.7">
<path opacity="0.9" d="M443 121.956V122.899H461.855V121.956H443Z" fill="url(#paint17_linear_1556_739)"/>
<path opacity="0.9" d="M452.9 131.855H451.957V113H452.9V131.855Z" fill="url(#paint18_linear_1556_739)"/>
<path d="M453.094 123.095C453.462 122.727 453.462 122.13 453.094 121.762C452.725 121.393 452.129 121.393 451.76 121.762C451.392 122.13 451.392 122.727 451.76 123.095C452.129 123.463 452.725 123.463 453.094 123.095Z" fill="white"/>
</g>
<defs>
<filter id="filter0_d_1556_739" x="283" y="365" width="24.015" height="24" filterUnits="userSpaceOnUse" color-interpolation-filters="sRGB">
<feFlood flood-opacity="0" result="BackgroundImageFix"/>
<feColorMatrix in="SourceAlpha" type="matrix" values="0 0 0 0 0 0 0 0 0 0 0 0 0 0 0 0 0 0 127 0" result="hardAlpha"/>
<feOffset/>
<feGaussianBlur stdDeviation="5"/>
<feColorMatrix type="matrix" values="0 0 0 0 1 0 0 0 0 1 0 0 0 0 1 0 0 0 0.25 0"/>
<feBlend mode="normal" in2="BackgroundImageFix" result="effect1_dropShadow_1556_739"/>
<feBlend mode="normal" in="SourceGraphic" in2="effect1_dropShadow_1556_739" result="shape"/>
</filter>
<filter id="filter1_d_1556_739" x="711" y="304" width="24.015" height="24" filterUnits="userSpaceOnUse" color-interpolation-filters="sRGB">
<feFlood flood-opacity="0" result="BackgroundImageFix"/>
<feColorMatrix in="SourceAlpha" type="matrix" values="0 0 0 0 0 0 0 0 0 0 0 0 0 0 0 0 0 0 127 0" result="hardAlpha"/>
<feOffset/>
<feGaussianBlur stdDeviation="5"/>
<feColorMatrix type="matrix" values="0 0 0 0 1 0 0 0 0 1 0 0 0 0 1 0 0 0 0.25 0"/>
<feBlend mode="normal" in2="BackgroundImageFix" result="effect1_dropShadow_1556_739"/>
<feBlend mode="normal" in="SourceGraphic" in2="effect1_dropShadow_1556_739" result="shape"/>
</filter>
<filter id="filter2_d_1556_739" x="227" y="78" width="24.015" height="24" filterUnits="userSpaceOnUse" color-interpolation-filters="sRGB">
<feFlood flood-opacity="0" result="BackgroundImageFix"/>
<feColorMatrix in="SourceAlpha" type="matrix" values="0 0 0 0 0 0 0 0 0 0 0 0 0 0 0 0 0 0 127 0" result="hardAlpha"/>
<feOffset/>
<feGaussianBlur stdDeviation="5"/>
<feColorMatrix type="matrix" values="0 0 0 0 1 0 0 0 0 1 0 0 0 0 1 0 0 0 0.25 0"/>
<feBlend mode="normal" in2="BackgroundImageFix" result="effect1_dropShadow_1556_739"/>
<feBlend mode="normal" in="SourceGraphic" in2="effect1_dropShadow_1556_739" result="shape"/>
</filter>
<filter id="filter3_d_1556_739" x="825" y="49" width="24.015" height="24" filterUnits="userSpaceOnUse" color-interpolation-filters="sRGB">
<feFlood flood-opacity="0" result="BackgroundImageFix"/>
<feColorMatrix in="SourceAlpha" type="matrix" values="0 0 0 0 0 0 0 0 0 0 0 0 0 0 0 0 0 0 127 0" result="hardAlpha"/>
<feOffset/>
<feGaussianBlur stdDeviation="5"/>
<feColorMatrix type="matrix" values="0 0 0 0 1 0 0 0 0 1 0 0 0 0 1 0 0 0 0.25 0"/>
<feBlend mode="normal" in2="BackgroundImageFix" result="effect1_dropShadow_1556_739"/>
<feBlend mode="normal" in="SourceGraphic" in2="effect1_dropShadow_1556_739" result="shape"/>
</filter>
<filter id="filter4_d_1556_739" x="22" y="198" width="24.015" height="24" filterUnits="userSpaceOnUse" color-interpolation-filters="sRGB">
<feFlood flood-opacity="0" result="BackgroundImageFix"/>
<feColorMatrix in="SourceAlpha" type="matrix" values="0 0 0 0 0 0 0 0 0 0 0 0 0 0 0 0 0 0 127 0" result="hardAlpha"/>
<feOffset/>
<feGaussianBlur stdDeviation="5"/>
<feColorMatrix type="matrix" values="0 0 0 0 1 0 0 0 0 1 0 0 0 0 1 0 0 0 0.25 0"/>
<feBlend mode="normal" in2="BackgroundImageFix" result="effect1_dropShadow_1556_739"/>
<feBlend mode="normal" in="SourceGraphic" in2="effect1_dropShadow_1556_739" result="shape"/>
</filter>
<filter id="filter5_d_1556_739" x="561" y="328" width="24.015" height="24" filterUnits="userSpaceOnUse" color-interpolation-filters="sRGB">
<feFlood flood-opacity="0" result="BackgroundImageFix"/>
<feColorMatrix in="SourceAlpha" type="matrix" values="0 0 0 0 0 0 0 0 0 0 0 0 0 0 0 0 0 0 127 0" result="hardAlpha"/>
<feOffset/>
<feGaussianBlur stdDeviation="5"/>
<feColorMatrix type="matrix" values="0 0 0 0 1 0 0 0 0 1 0 0 0 0 1 0 0 0 0.25 0"/>
<feBlend mode="normal" in2="BackgroundImageFix" result="effect1_dropShadow_1556_739"/>
<feBlend mode="normal" in="SourceGraphic" in2="effect1_dropShadow_1556_739" result="shape"/>
</filter>
<filter id="filter6_d_1556_739" x="572" y="33" width="24.015" height="24" filterUnits="userSpaceOnUse" color-interpolation-filters="sRGB">
<feFlood flood-opacity="0" result="BackgroundImageFix"/>
<feColorMatrix in="SourceAlpha" type="matrix" values="0 0 0 0 0 0 0 0 0 0 0 0 0 0 0 0 0 0 127 0" result="hardAlpha"/>
<feOffset/>
<feGaussianBlur stdDeviation="5"/>
<feColorMatrix type="matrix" values="0 0 0 0 1 0 0 0 0 1 0 0 0 0 1 0 0 0 0.25 0"/>
<feBlend mode="normal" in2="BackgroundImageFix" result="effect1_dropShadow_1556_739"/>
<feBlend mode="normal" in="SourceGraphic" in2="effect1_dropShadow_1556_739" result="shape"/>
</filter>
<linearGradient id="paint0_linear_1556_739" x1="297.494" y1="374.522" x2="294.519" y2="377.508" gradientUnits="userSpaceOnUse">
<stop stop-color="#181825"/>
<stop offset="1" stop-color="#2F2F45"/>
</linearGradient>
<linearGradient id="paint1_linear_1556_739" x1="725.494" y1="313.522" x2="722.519" y2="316.508" gradientUnits="userSpaceOnUse">
<stop stop-color="#181825"/>
<stop offset="1" stop-color="#2F2F45"/>
</linearGradient>
<linearGradient id="paint2_linear_1556_739" x1="683.714" y1="130.968" x2="677.284" y2="137.422" gradientUnits="userSpaceOnUse">
<stop stop-color="#181825"/>
<stop offset="1" stop-color="#2F2F45"/>
</linearGradient>
<linearGradient id="paint3_linear_1556_739" x1="380.714" y1="275.968" x2="374.284" y2="282.422" gradientUnits="userSpaceOnUse">
<stop stop-color="#181825"/>
<stop offset="1" stop-color="#2F2F45"/>
</linearGradient>
<linearGradient id="paint4_linear_1556_739" x1="241.494" y1="87.5224" x2="238.519" y2="90.5085" gradientUnits="userSpaceOnUse">
<stop stop-color="#181825"/>
<stop offset="1" stop-color="#2F2F45"/>
</linearGradient>
<linearGradient id="paint5_linear_1556_739" x1="839.494" y1="58.5224" x2="836.519" y2="61.5085" gradientUnits="userSpaceOnUse">
<stop stop-color="#181825"/>
<stop offset="1" stop-color="#2F2F45"/>
</linearGradient>
<linearGradient id="paint6_linear_1556_739" x1="36.4943" y1="207.522" x2="33.5194" y2="210.508" gradientUnits="userSpaceOnUse">
<stop stop-color="#181825"/>
<stop offset="1" stop-color="#2F2F45"/>
</linearGradient>
<linearGradient id="paint7_linear_1556_739" x1="575.494" y1="337.522" x2="572.519" y2="340.508" gradientUnits="userSpaceOnUse">
<stop stop-color="#181825"/>
<stop offset="1" stop-color="#2F2F45"/>
</linearGradient>
<linearGradient id="paint8_linear_1556_739" x1="586.494" y1="42.5224" x2="583.519" y2="45.5085" gradientUnits="userSpaceOnUse">
<stop stop-color="#181825"/>
<stop offset="1" stop-color="#2F2F45"/>
</linearGradient>
<linearGradient id="paint9_linear_1556_739" x1="856" y1="215.428" x2="874.855" y2="215.428" gradientUnits="userSpaceOnUse">
<stop stop-color="white" stop-opacity="0"/>
<stop offset="0.5" stop-color="white"/>
<stop offset="1" stop-color="white" stop-opacity="0"/>
</linearGradient>
<linearGradient id="paint10_linear_1556_739" x1="865.428" y1="224.855" x2="865.428" y2="206" gradientUnits="userSpaceOnUse">
<stop stop-color="white" stop-opacity="0"/>
<stop offset="0.5" stop-color="white"/>
<stop offset="1" stop-color="white" stop-opacity="0"/>
</linearGradient>
<linearGradient id="paint11_linear_1556_739" x1="75" y1="341.428" x2="93.855" y2="341.428" gradientUnits="userSpaceOnUse">
<stop stop-color="white" stop-opacity="0"/>
<stop offset="0.5" stop-color="white"/>
<stop offset="1" stop-color="white" stop-opacity="0"/>
</linearGradient>
<linearGradient id="paint12_linear_1556_739" x1="84.4283" y1="350.855" x2="84.4283" y2="332" gradientUnits="userSpaceOnUse">
<stop stop-color="white" stop-opacity="0"/>
<stop offset="0.5" stop-color="white"/>
<stop offset="1" stop-color="white" stop-opacity="0"/>
</linearGradient>
<linearGradient id="paint13_linear_1556_739" x1="742" y1="411.428" x2="760.855" y2="411.428" gradientUnits="userSpaceOnUse">
<stop stop-color="white" stop-opacity="0"/>
<stop offset="0.5" stop-color="white"/>
<stop offset="1" stop-color="white" stop-opacity="0"/>
</linearGradient>
<linearGradient id="paint14_linear_1556_739" x1="751.428" y1="420.855" x2="751.428" y2="402" gradientUnits="userSpaceOnUse">
<stop stop-color="white" stop-opacity="0"/>
<stop offset="0.5" stop-color="white"/>
<stop offset="1" stop-color="white" stop-opacity="0"/>
</linearGradient>
<linearGradient id="paint15_linear_1556_739" x1="126" y1="37.4282" x2="144.855" y2="37.4282" gradientUnits="userSpaceOnUse">
<stop stop-color="white" stop-opacity="0"/>
<stop offset="0.5" stop-color="white"/>
<stop offset="1" stop-color="white" stop-opacity="0"/>
</linearGradient>
<linearGradient id="paint16_linear_1556_739" x1="135.428" y1="46.8552" x2="135.428" y2="28" gradientUnits="userSpaceOnUse">
<stop stop-color="white" stop-opacity="0"/>
<stop offset="0.5" stop-color="white"/>
<stop offset="1" stop-color="white" stop-opacity="0"/>
</linearGradient>
<linearGradient id="paint17_linear_1556_739" x1="443" y1="122.428" x2="461.855" y2="122.428" gradientUnits="userSpaceOnUse">
<stop stop-color="white" stop-opacity="0"/>
<stop offset="0.5" stop-color="white"/>
<stop offset="1" stop-color="white" stop-opacity="0"/>
</linearGradient>
<linearGradient id="paint18_linear_1556_739" x1="452.428" y1="131.855" x2="452.428" y2="113" gradientUnits="userSpaceOnUse">
<stop stop-color="white" stop-opacity="0"/>
<stop offset="0.5" stop-color="white"/>
<stop offset="1" stop-color="white" stop-opacity="0"/>
</linearGradient>
</defs>
</svg>
